<?xml version="1.0" standalone="no"?>
<!DOCTYPE svg PUBLIC "-//W3C//DTD SVG 20010904//EN"
 "http://www.w3.org/TR/2001/REC-SVG-20010904/DTD/svg10.dtd">
<svg version="1.0" xmlns="http://www.w3.org/2000/svg"
 width="512.000000pt" height="512.000000pt" viewBox="0 0 512.000000 512.000000"
 preserveAspectRatio="xMidYMid meet">
<metadata>
Created by potrace 1.11, written by Peter Selinger 2001-2013
</metadata>
<g transform="translate(0.000000,512.000000) scale(0.100000,-0.100000)"
fill="#000000" stroke="none">
<path d="M2407 3614 c-1 -1 -74 -5 -162 -9 -88 -3 -173 -8 -190 -10 -16 -2
-64 -7 -105 -10 -41 -3 -88 -8 -105 -10 -16 -2 -59 -7 -95 -10 -36 -4 -74 -9
-85 -11 -11 -2 -42 -7 -70 -10 -97 -12 -424 -83 -494 -107 -175 -61 -344 -212
-420 -375 l-24 -51 -281 -3 c-402 -4 -376 27 -376 -445 0 -301 2 -331 19 -370
14 -30 31 -48 60 -62 37 -20 58 -21 289 -21 l250 0 12 -47 c50 -203 221 -403
418 -490 133 -58 194 -67 502 -66 229 0 264 2 338 22 180 47 240 88 489 335
l183 180 187 -185 c246 -242 324 -294 507 -335 87 -20 480 -26 611 -10 65 8
184 45 243 75 174 89 327 275 378 460 l17 61 248 0 c136 0 259 4 272 9 36 14
72 52 85 90 8 23 12 138 12 358 0 359 -2 372 -64 416 -30 21 -40 22 -311 25
l-280 3 -40 75 c-86 163 -246 297 -426 357 -42 14 -232 59 -304 72 -106 18
-279 45 -330 50 -33 4 -69 8 -80 10 -112 17 -477 37 -727 39 -82 0 -150 0
-151 0z m457 -308 c65 -3 121 -7 123 -10 5 -4 -44 -188 -88 -335 -10 -35 -19
-79 -19 -98 0 -99 101 -174 192 -144 72 24 85 50 158 308 64 226 68 238 91
237 33 -1 138 -13 169 -19 81 -16 81 -16 74 -38 -10 -32 -84 -298 -89 -322 -3
-11 -12 -42 -20 -70 -55 -183 -148 -536 -148 -566 -1 -54 19 -92 65 -122 75
-49 166 -28 209 48 9 17 62 194 117 395 169 613 164 595 191 592 34 -3 119
-48 168 -88 52 -43 118 -140 139 -208 23 -69 28 -619 8 -709 -36 -154 -143
-271 -297 -324 -68 -24 -85 -26 -292 -27 -137 -1 -246 3 -288 11 -122 22 -162
52 -435 323 -205 204 -256 250 -290 261 -83 24 -98 14 -374 -261 -273 -271
-313 -301 -435 -323 -107 -19 -483 -14 -558 8 -57 16 -105 37 -129 56 -88 68
-141 136 -179 231 -19 49 -21 74 -23 357 -2 332 4 382 54 475 36 68 127 157
193 188 52 24 183 61 265 74 21 3 42 8 45 9 3 2 28 7 55 11 27 3 51 7 54 9 3
2 29 6 59 10 30 4 63 8 74 11 10 2 45 6 76 9 31 4 67 8 80 10 21 4 76 9 211
21 19 1 121 6 225 10 105 3 191 7 192 8 3 3 257 -3 377 -8z m-2263 -608 c1
-15 1 -257 0 -275 -1 -10 -38 -13 -151 -13 l-150 0 0 150 0 150 150 0 c113 0
150 -3 151 -12z m4219 -138 l0 -150 -150 0 -150 0 -1 33 c-1 40 -1 203 0 240
l1 27 150 0 150 0 0 -150z"/>
</g>
</svg>
